<?xml version="1.0" standalone="no"?>
<!DOCTYPE svg PUBLIC "-//W3C//DTD SVG 20010904//EN"
 "http://www.w3.org/TR/2001/REC-SVG-20010904/DTD/svg10.dtd">
<svg version="1.0" xmlns="http://www.w3.org/2000/svg"
 width="700.000000pt" height="700.000000pt" viewBox="0 0 700.000000 700.000000"
 preserveAspectRatio="xMidYMid meet">
<metadata>
Created by potrace 1.11, written by Peter Selinger 2001-2013
</metadata>
<g transform="translate(0.000000,700.000000) scale(0.100000,-0.100000)"
fill="#000000" stroke="none">
<path d="M2223 5789 c-36 -7 -64 -22 -87 -47 -15 -17 -103 -164 -198 -332 -22
-38 -344 -597 -491 -850 -49 -85 -98 -171 -109 -190 -11 -19 -46 -80 -78 -135
-32 -55 -67 -116 -77 -135 -41 -71 -193 -336 -203 -350 -55 -88 -121 -214
-128 -246 -11 -47 3 -100 40 -159 13 -22 36 -60 50 -85 14 -25 83 -144 153
-265 70 -121 138 -240 152 -265 78 -139 146 -249 164 -266 15 -13 36 -19 69
-19 55 0 83 20 117 83 11 20 111 195 223 387 260 450 358 620 514 890 69 121
130 227 135 235 5 8 77 132 160 275 143 248 178 298 228 324 16 8 360 11 1245
11 1205 0 1223 0 1256 20 18 11 37 32 42 46 12 31 13 87 1 99 -4 6 -22 35 -38
65 -17 30 -54 96 -83 145 -29 50 -62 106 -72 125 -11 19 -46 80 -78 135 -32
55 -67 116 -77 135 -60 105 -168 289 -184 311 -10 15 -36 35 -56 45 -36 17
-98 18 -1300 19 -694 0 -1274 -2 -1290 -6z"/>
<path d="M3045 4327 c-48 -19 -61 -30 -93 -77 -25 -38 -195 -330 -279 -480
-14 -25 -49 -85 -78 -135 -29 -49 -78 -134 -110 -189 -71 -122 -79 -162 -39
-199 l28 -26 1759 0 c1613 -1 1761 0 1786 15 32 19 127 173 137 220 4 21 0 44
-14 70 -34 70 -423 738 -440 758 -9 10 -35 27 -58 37 -39 18 -100 19 -1305 18
-937 -1 -1272 -4 -1294 -12z"/>
<path d="M2185 2891 c-21 -13 -67 -82 -159 -242 -71 -123 -177 -305 -235 -404
-95 -162 -105 -185 -105 -230 -1 -37 6 -60 25 -90 14 -22 39 -65 56 -95 17
-30 97 -170 178 -310 81 -140 158 -274 171 -297 42 -73 49 -74 349 -71 l265 3
23 25 c13 14 70 106 127 205 151 264 270 471 420 730 324 560 385 667 393 689
10 27 -19 85 -48 96 -17 6 -287 10 -728 10 -666 0 -704 -1 -732 -19z"/>
</g>
</svg>
