<svg width="106" height="16" fill="none" xmlns="http://www.w3.org/2000/svg"><path d="M91.654 15.656V.323h3.571l5.937 8.52V.324h3.962v15.333h-3.476l-6.038-8.54v8.54h-3.956z" fill="#1A1A1A"/><path d="M78.355 2.258C79.888.76 81.82 0 84.033 0c2.082 0 4.05.803 5.571 2.277 1.584 1.537 2.41 3.517 2.41 5.618 0 2.214-.789 4.187-2.259 5.68-1.514 1.563-3.577 2.404-5.747 2.404-2.303 0-4.277-.822-5.81-2.43-1.47-1.536-2.208-3.44-2.208-5.718 0-2.119.832-4.073 2.365-5.573zm5.66 9.913c2.239 0 4.062-1.778 4.062-4.289 0-2.252-1.823-4.055-4.012-4.055-2.322 0-4.145 1.803-4.145 4.055-.006 2.43 1.943 4.289 4.094 4.289z" fill="#1A1A1A"/><path d="M69.719 15.656V.33h3.93v11.943h4.612v3.384h-8.542zM64.558 9.792h-4.07v5.864H56.54V.323h3.949v5.826h4.069V.323h3.95v15.333h-3.95V9.792zM48.698 15.656V3.986h-3.073V.315H55.72v3.67h-3.066v11.67h-3.955zM40.667.323s-5.092 8.64-5.584 9.419c-.58.917-1.842 2.366-3.753 2.34-3.11-.05-4.278-2.195-4.278-4.118 0-2.189 1.748-4.074 4.038-4.112 2.58-.05 4.504 2.417 4.504 2.417l2.02-3.252s-2.285-3.1-6.486-3.004C24.794.158 22.95 5.447 22.95 7.9c0 5.162 3.981 7.736 7.237 8.053 4.68.455 7.242-2.6 7.242-2.6s-.031-.006.126-.013c.947-.012 3.439.013 3.439.013v2.296h3.804V.323h-4.132zm.41 9.824h-2.038l2.038-3.473v3.473zM13.816.323h8.795V3.7l-4.84.006v2.505l4.19-.006V9.5l-4.19.007v2.777h4.84v3.365h-8.795V.323z" fill="#1A1A1A"/><path d="M0 15.656V.323h5.527c2.567 0 4.359.322 6.043 1.834 1.54 1.38 2.36 3.384 2.36 5.908 0 2.328-.795 4.245-2.34 5.694-1.723 1.594-3.25 1.897-5.52 1.897H0zM10 7.94c0-2.758-1.571-4.314-4.473-4.314H3.956v8.666h1.59c3.021 0 4.453-1.335 4.453-4.352z" fill="#1A1A1A"/></svg>